<svg width="16" height="17" viewBox="0 0 16 17" fill="none" xmlns="http://www.w3.org/2000/svg">
<circle cx="7.93774" cy="8.5" r="7.5" stroke="black" stroke-width="0.3"/>
<path d="M9.69902 11.2353H6.17468C5.68767 11.2353 5.28979 10.8374 5.28979 10.3504V6.82605C5.28979 6.33904 5.68767 5.94116 6.17468 5.94116H9.69902C10.186 5.94116 10.5839 6.33904 10.5839 6.82605V10.3504C10.5839 10.8396 10.1882 11.2353 9.69902 11.2353Z" stroke="black" stroke-width="0.3"/>
<path d="M6.97698 9.55031C7.23353 9.80687 7.57487 9.94819 7.93796 9.94819C8.30105 9.94819 8.64022 9.80687 8.89895 9.55031C9.1555 9.29376 9.29682 8.95242 9.29682 8.58933C9.29682 8.22624 9.1555 7.8849 8.89895 7.62834C8.64239 7.37179 8.30105 7.23047 7.93796 7.23047C7.57487 7.23047 7.23353 7.37179 6.97698 7.62834C6.72042 7.8849 6.5791 8.22624 6.5791 8.58933C6.5791 8.95242 6.72042 9.29376 6.97698 9.55031Z" stroke="black" stroke-width="0.3"/>
<path d="M9.56169 7.18588C9.70578 7.18588 9.8226 7.06907 9.8226 6.92497C9.8226 6.78087 9.70578 6.66406 9.56169 6.66406C9.41759 6.66406 9.30078 6.78087 9.30078 6.92497C9.30078 7.06907 9.41759 7.18588 9.56169 7.18588Z" stroke="black" stroke-width="0.3"/>
</svg>
