<svg width="16" height="17" viewBox="0 0 16 17" fill="none" xmlns="http://www.w3.org/2000/svg">
<circle cx="7.8125" cy="8.5" r="7.5" stroke="black" stroke-width="0.3"/>
<path d="M10.691 7.27725C10.534 6.93045 10.3088 6.6191 10.0227 6.35077C9.73667 6.08498 9.40507 5.87488 9.03549 5.72806C8.65326 5.57618 8.24824 5.50024 7.83057 5.50024C7.4129 5.50024 7.00788 5.57618 6.62565 5.72806C6.25607 5.87488 5.92447 6.08245 5.63843 6.35077C5.35238 6.6191 5.1271 6.93045 4.97015 7.27725C4.80815 7.6367 4.72461 8.02146 4.72461 8.41635C4.72461 9.1074 4.9828 9.77062 5.45616 10.2971L5.20303 11.6767L6.54971 11.0768C6.95219 11.2489 7.37999 11.335 7.82803 11.335C8.24571 11.335 8.65072 11.259 9.03296 11.1072C9.40253 10.9603 9.73414 10.7528 10.0202 10.4845C10.3062 10.2161 10.5315 9.90478 10.6884 9.55798C10.8505 9.19853 10.934 8.81377 10.934 8.41888C10.9365 8.02146 10.853 7.63923 10.691 7.27725Z" stroke="black" stroke-width="0.3"/>
<path d="M9.09039 8.99875C8.95876 8.93293 8.86258 8.89243 8.79423 8.86712C8.7512 8.85193 8.64994 8.80637 8.6145 8.83421C8.50312 8.92534 8.38415 9.18354 8.25758 9.23163C7.9437 9.17088 7.65259 8.95571 7.42477 8.73549C7.32352 8.6393 7.1362 8.36591 7.0957 8.2925C7.0881 8.21656 7.22479 8.11531 7.25517 8.05709C7.41211 7.8799 7.29314 7.76852 7.27289 7.69511C7.23745 7.61917 7.1767 7.48247 7.12355 7.3711C7.07798 7.29769 7.06785 7.18884 6.98684 7.14834C6.64258 6.97114 6.44515 7.32553 6.36414 7.51032C5.87559 8.68739 8.81194 10.9276 9.40934 9.38351C9.43972 9.24935 9.42706 9.19872 9.38149 9.13797C9.29037 9.07469 9.18405 9.04684 9.09039 8.99875Z" stroke="black" stroke-width="0.3"/>
</svg>
